<mxfile host="app.diagrams.net" modified="2024-03-12T00:06:38.488Z" agent="Mozilla/5.0 (Windows NT 10.0; Win64; x64) AppleWebKit/537.36 (KHTML, like Gecko) Chrome/122.0.0.0 Safari/537.36" etag="cCDKqXL2M3pXu2tUX-dk" version="24.0.0" type="github">
  <diagram name="Page-1" id="64c3da0e-402f-94eb-ee01-a36477274f13">
    <mxGraphModel dx="1079" dy="2001" grid="1" gridSize="10" guides="1" tooltips="1" connect="1" arrows="1" fold="1" page="1" pageScale="1" pageWidth="1169" pageHeight="826" background="none" math="0" shadow="0">
      <root>
        <mxCell id="0" />
        <mxCell id="1" parent="0" />
        <mxCell id="12" value="Functionality" style="whiteSpace=wrap;rounded=1;fillColor=#666666;strokeColor=none;shadow=1;fontColor=#FFFFFF;" parent="1" vertex="1">
          <mxGeometry x="80" y="480" width="120" height="80" as="geometry" />
        </mxCell>
        <mxCell id="23" value="Software Modules" style="whiteSpace=wrap;rounded=1;fillColor=#333333;strokeColor=none;shadow=1;fontColor=#FFFFFF;fontStyle=0" parent="1" vertex="1">
          <mxGeometry x="80" y="360" width="120" height="80" as="geometry" />
        </mxCell>
        <mxCell id="k4u_uRyAVN-GwR9JuS_v-239" value="UI" style="whiteSpace=wrap;rounded=1;fillColor=#33FF99;strokeColor=none;shadow=1;fontColor=#FFFFFF;" vertex="1" parent="1">
          <mxGeometry x="80" y="240" width="120" height="80" as="geometry" />
        </mxCell>
        <mxCell id="k4u_uRyAVN-GwR9JuS_v-240" value="AllTrails Core App" style="whiteSpace=wrap;rounded=1;fillColor=#B9E0A5;strokeColor=none;shadow=1;fontColor=#FFFFFF;" vertex="1" parent="1">
          <mxGeometry x="360" width="200" height="80" as="geometry" />
        </mxCell>
        <mxCell id="k4u_uRyAVN-GwR9JuS_v-241" value="Groups" style="whiteSpace=wrap;rounded=1;fillColor=#97D077;strokeColor=none;shadow=1;fontColor=#FFFFFF;" vertex="1" parent="1">
          <mxGeometry x="240" y="120" width="200" height="80" as="geometry" />
        </mxCell>
        <mxCell id="k4u_uRyAVN-GwR9JuS_v-243" value="Challenges" style="whiteSpace=wrap;rounded=1;fillColor=#97D077;strokeColor=none;shadow=1;fontColor=#FFFFFF;" vertex="1" parent="1">
          <mxGeometry x="480" y="120" width="200" height="80" as="geometry" />
        </mxCell>
        <mxCell id="k4u_uRyAVN-GwR9JuS_v-244" value="" style="whiteSpace=wrap;rounded=1;fillColor=#33FF99;strokeColor=none;shadow=1;fontColor=#FFFFFF;" vertex="1" parent="1">
          <mxGeometry x="240" y="240" width="200" height="80" as="geometry" />
        </mxCell>
        <mxCell id="k4u_uRyAVN-GwR9JuS_v-245" value="" style="whiteSpace=wrap;rounded=1;fillColor=#33FF99;strokeColor=none;shadow=1;fontColor=#FFFFFF;" vertex="1" parent="1">
          <mxGeometry x="480" y="240" width="200" height="80" as="geometry" />
        </mxCell>
        <mxCell id="k4u_uRyAVN-GwR9JuS_v-246" value="" style="whiteSpace=wrap;rounded=1;fillColor=#333333;strokeColor=none;shadow=1;fontColor=#FFFFFF;fontStyle=0" vertex="1" parent="1">
          <mxGeometry x="240" y="360" width="200" height="80" as="geometry" />
        </mxCell>
        <mxCell id="k4u_uRyAVN-GwR9JuS_v-247" value="" style="whiteSpace=wrap;rounded=1;fillColor=#333333;strokeColor=none;shadow=1;fontColor=#FFFFFF;fontStyle=0" vertex="1" parent="1">
          <mxGeometry x="480" y="360" width="200" height="80" as="geometry" />
        </mxCell>
        <mxCell id="k4u_uRyAVN-GwR9JuS_v-248" value="" style="whiteSpace=wrap;rounded=1;fillColor=#666666;strokeColor=none;shadow=1;fontColor=#FFFFFF;" vertex="1" parent="1">
          <mxGeometry x="240" y="480" width="200" height="80" as="geometry" />
        </mxCell>
        <mxCell id="k4u_uRyAVN-GwR9JuS_v-249" value="" style="whiteSpace=wrap;rounded=1;fillColor=#666666;strokeColor=none;shadow=1;fontColor=#FFFFFF;" vertex="1" parent="1">
          <mxGeometry x="480" y="480" width="200" height="80" as="geometry" />
        </mxCell>
        <mxCell id="k4u_uRyAVN-GwR9JuS_v-252" value="Deployment" style="whiteSpace=wrap;rounded=1;fillColor=#969696;strokeColor=none;shadow=1;fontColor=#FFFFFF;" vertex="1" parent="1">
          <mxGeometry x="80" y="600" width="120" height="80" as="geometry" />
        </mxCell>
        <mxCell id="k4u_uRyAVN-GwR9JuS_v-253" value="" style="whiteSpace=wrap;rounded=1;fillColor=#969696;strokeColor=none;shadow=1;fontColor=#FFFFFF;" vertex="1" parent="1">
          <mxGeometry x="240" y="600" width="200" height="80" as="geometry" />
        </mxCell>
        <mxCell id="k4u_uRyAVN-GwR9JuS_v-254" value="" style="whiteSpace=wrap;rounded=1;fillColor=#969696;strokeColor=none;shadow=1;fontColor=#FFFFFF;" vertex="1" parent="1">
          <mxGeometry x="480" y="600" width="200" height="80" as="geometry" />
        </mxCell>
      </root>
    </mxGraphModel>
  </diagram>
</mxfile>
